<?xml version="1.0" encoding="UTF-8"?>
<svg width="64px" height="64px" viewBox="0 0 64 64" version="1.1" xmlns="http://www.w3.org/2000/svg" xmlns:xlink="http://www.w3.org/1999/xlink">
    <title>icon-ipados-f-i</title>
    <g id="icon-ipados-f-i" stroke="none" stroke-width="1" fill="none" fill-rule="evenodd">
        <g id="Group" transform="translate(12.050000, 7.000000)">
            <rect id="Rectangle-Copy-2" fill-opacity="0.35" fill="#F0F0F0" x="1.3" y="1" width="38" height="52" rx="4"></rect>
            <path d="M33.2871094,54.234375 C35.4199219,54.234375 37.0576172,53.6673177 38.2001953,52.5332031 C39.3427734,51.3990885 39.9140625,49.7740885 39.9140625,47.6582031 L39.9140625,6.57617188 C39.9140625,4.46028646 39.3427734,2.83528646 38.2001953,1.70117188 C37.0576172,0.567057292 35.4199219,0 33.2871094,0 L6.65234375,0 C4.51953125,0 2.87760417,0.567057292 1.7265625,1.70117188 C0.575520833,2.83528646 0,4.46028646 0,6.57617188 L0,47.6582031 C0,49.7740885 0.575520833,51.3990885 1.7265625,52.5332031 C2.87760417,53.6673177 4.51953125,54.234375 6.65234375,54.234375 L33.2871094,54.234375 Z M33.109375,52.3554688 L6.8046875,52.3554688 C5.19661458,52.3554688 3.97363281,51.9407552 3.13574219,51.1113281 C2.29785156,50.281901 1.87890625,49.063151 1.87890625,47.4550781 L1.87890625,6.77929688 C1.87890625,5.17122396 2.29785156,3.94824219 3.13574219,3.11035156 C3.97363281,2.27246094 5.19661458,1.85351562 6.8046875,1.85351562 L33.109375,1.85351562 C34.734375,1.85351562 35.9658203,2.27246094 36.8037109,3.11035156 C37.6416016,3.94824219 38.0605469,5.17122396 38.0605469,6.77929688 L38.0605469,47.4550781 C38.0605469,49.063151 37.6416016,50.281901 36.8037109,51.1113281 C35.9658203,51.9407552 34.734375,52.3554688 33.109375,52.3554688 Z M26.8378906,50.4257812 C27.0579427,50.4257812 27.2441406,50.3538411 27.3964844,50.2099609 C27.5488281,50.0660807 27.625,49.8841146 27.625,49.6640625 C27.625,49.4440104 27.5488281,49.2620443 27.3964844,49.1181641 C27.2441406,48.9742839 27.0579427,48.9023438 26.8378906,48.9023438 L13.0761719,48.9023438 C12.8561198,48.9023438 12.6741536,48.9742839 12.5302734,49.1181641 C12.3863932,49.2620443 12.3144531,49.4440104 12.3144531,49.6640625 C12.3144531,49.8841146 12.3863932,50.0660807 12.5302734,50.2099609 C12.6741536,50.3538411 12.8561198,50.4257812 13.0761719,50.4257812 L26.8378906,50.4257812 Z" id="􀟠" fill="#EFEFEF" fill-rule="nonzero"></path>
        </g>
    </g>
</svg>