<?xml version="1.0" encoding="UTF-8"?><svg id="Layer_1" xmlns="http://www.w3.org/2000/svg" viewBox="0 0 45 38.79"><defs><style>.cls-1,.cls-2{fill:#efefef;}.cls-2{isolation:isolate;}</style></defs><path class="cls-1" d="M35.04,8.26c.7-.3,1.2-.4,1.7-.3,.8,.2,1.2,.8,1.5,1.1,.3,.6,1.4,1.2,1.9,1.3,.4,.1,1.1-1,1.6-2,.5-.9,.8-2.1,.7-2.4s-1.5-.9-1.8-.9c-.2,0-.6,.2-1.3,.1s-1.4-.9-1.8-1.5c-.7-1-1.7-1.6-2.6-2.1-1-.5-2.1-.8-3.2-1-1.6-.4-3.2-.7-4.8-.5-.9,.1-2,.2-2.8,.5-.1,0-.3,.3-.1,.3s.9,.1,.9,.1c0,0-.9,.2-.9,.4s.1,.2,.2,.2,2.3-.1,3.2,0c1,.2,2.1,.7,2.8,1.9,1.2,2.2,.7,4.3,.4,5-1.5,3.3-13.4,23.6-14,25s-.8,2.3,.9,3.2c1.7,.9,2.6,.5,3.1-.1,.6-.8,10.9-26.6,14.4-28.3Z"/><path class="cls-1" d="M35.04,8.26c.7-.3,1.2-.4,1.7-.3,.8,.2,1.2,.8,1.5,1.1,.3,.6,1.4,1.2,1.9,1.3,.4,.1,1.1-1,1.6-2,.5-.9,.8-2.1,.7-2.4s-1.5-.9-1.8-.9c-.2,0-.6,.2-1.3,.1s-1.4-.9-1.8-1.5c-.7-1-1.7-1.6-2.6-2.1-1-.5-2.1-.8-3.2-1-1.6-.4-3.2-.7-4.8-.5-.9,.1-2,.2-2.8,.5-.1,0-.3,.3-.1,.3s.9,.1,.9,.1c0,0-.9,.2-.9,.4s.1,.2,.2,.2,2.3-.1,3.2,0c1,.2,2.1,.7,2.8,1.9,1.2,2.2,.7,4.3,.4,5-1.5,3.3-13.4,23.6-14,25s-.8,2.3,.9,3.2c1.7,.9,2.6,.5,3.1-.1,.6-.8,10.9-26.6,14.4-28.3Z"/><g><path class="cls-2" d="M20.26,23.98h-2.17l-1.07,1.85-1.17,1.97c-.19,.34-.47,.57-.85,.71-.38,.14-.76,.1-1.14-.12-.37-.22-.58-.53-.65-.92-.07-.39,0-.76,.19-1.12l.79-1.36,.59-1.02h-1.99c-.62-.06-1.5-.4-1.5-1.42,0-1.1,1.11-1.43,1.5-1.43h3.64l4.69-8.1-1.42-2.41c-.2-.34-.26-.71-.19-1.11,.07-.4,.29-.7,.66-.91,.37-.22,.75-.26,1.13-.13,.38,.14,.66,.38,.85,.72l.6,.98,.6-.98c.19-.34,.47-.58,.85-.71,.38-.13,.75-.09,1.13,.12,.37,.21,.6,.51,.67,.91s.01,.77-.19,1.11l-1.4,2.43,.7,1.23,.35,.61c1.86-3.29,3.38-6.03,3.83-7.04,0,0,.28-.69,.22-1.68-1.6-.77-3.39-1.2-5.28-1.2-3.44,0-6.62,1.43-8.96,4.02l-.86,.96-1.24-.35c-.51-.15-1.02-.22-1.59-.22-2.8,0-5,2.2-5,5,0,.46,.06,.85,.22,1.4l.43,1.52-1.35,.81c-1.92,1.15-3.12,3.26-3.12,5.49,0,3.57,2.9,6.47,6.47,6.47h7.57c.82-1.46,1.98-3.48,3.47-6.08Z"/><path class="cls-2" d="M37.56,16.65l-1.25-.36-.21-1.29c-.25-1.52-.77-2.93-1.52-4.18-1.18,1.7-2.99,5.15-5.4,10.31h3.51c.39,0,1.5,.38,1.5,1.43s-1.11,1.42-1.5,1.42h-1.99l1.39,2.38c.19,.35,.5,1.54-.48,2.04s-1.8-.26-1.99-.6l-1.95-3.38c-.79,1.73-1.62,3.61-2.51,5.65h10.53c3.79,0,6.76-2.98,6.76-6.81,.07-3.08-1.89-5.73-4.88-6.6Z"/><path class="cls-2" d="M19.74,21.13h2.15c.64-1.13,1.3-2.27,1.93-3.39l-1.07-1.85-3.02,5.24Z"/></g><g><path class="cls-2" d="M16.35,30.84h-7.13c-4,0-7.25-3.25-7.25-7.25,0-2.51,1.34-4.87,3.5-6.16l.84-.5-.27-.94c-.17-.61-.25-1.08-.25-1.61,0-3.24,2.54-5.78,5.78-5.78,.65,0,1.22,.08,1.81,.25l.76,.22,.53-.59c2.49-2.76,5.87-4.28,9.54-4.28,1.82,0,3.55,.38,5.12,1.06-.09-.34-.21-.69-.41-1.06-.16-.27-.37-.49-.62-.67-1.29-.39-2.66-.6-4.09-.6-4.12,0-7.84,1.76-10.49,4.7-.69-.2-1.37-.29-2.16-.29-3.92,0-7.06,3.14-7.06,7.06,0,.69,.1,1.27,.29,1.96-2.45,1.47-4.12,4.21-4.12,7.25,0,4.7,3.82,8.53,8.53,8.53h6.43c.18-.33,.41-.75,.7-1.27Z"/><path class="cls-2" d="M38.13,14.67c-.31-1.89-1-3.65-1.99-5.21-.14,.04-.3,.09-.51,.18-.15,.09-.34,.27-.54,.51,.88,1.4,1.51,2.99,1.79,4.72l.13,.8,.78,.22c3.34,.97,5.53,3.93,5.45,7.37,0,4.26-3.32,7.58-7.55,7.58h-10.87c-.18,.42-.37,.85-.55,1.27h11.42c4.9,0,8.82-3.92,8.82-8.82,.1-4.21-2.65-7.55-6.37-8.63Z"/></g></svg>