<?xml version="1.0" encoding="UTF-8"?>
<svg width="64px" height="64px" viewBox="0 0 64 64" version="1.1" xmlns="http://www.w3.org/2000/svg" xmlns:xlink="http://www.w3.org/1999/xlink">
    <title>icon-tvos-f-i</title>
    <g id="icon-tvos-f-i" stroke="none" stroke-width="1" fill="none" fill-rule="evenodd">
        <path d="M6.27515624,17.25 L57.7,17.25 C58.8045695,17.25 59.7,18.1454305 59.7,19.25 L59.7,51.25 C59.7,52.3545695 58.8045695,53.25 57.7,53.25 L6.67515624,53.25 C5.58033675,53.25 4.68899665,52.369732 4.67531248,51.274998 L4.27531248,19.274998 C4.26150644,18.1705148 5.14567498,17.2639623 6.2501582,17.2501562 C6.25849047,17.2500521 6.26682332,17.25 6.27515624,17.25 Z" id="Rectangle-Copy-5" fill-opacity="0.35" fill="#F0F0F0"></path>
        <path d="M55.7189231,54.6419487 C59.0350769,54.6419487 60.73,52.9715897 60.73,49.6308718 L60.73,21.1365128 C60.73,17.820359 59.0350769,16.15 55.7189231,16.15 L8.23651282,16.15 C4.92035897,16.15 3.25,17.820359 3.25,21.1365128 L3.25,49.6308718 C3.25,52.9715897 4.92035897,54.6419487 8.23651282,54.6419487 L55.7189231,54.6419487 Z M55.6452308,52.799641 L8.33476923,52.799641 C6.1485641,52.799641 5.06774359,51.7679487 5.06774359,49.5817436 L5.06774359,21.2102051 C5.06774359,18.9994359 6.1485641,17.9677436 8.33476923,17.9677436 L55.6452308,17.9677436 C57.8314359,17.9677436 58.8876923,18.9994359 58.8876923,21.2102051 L58.8876923,49.5817436 C58.8876923,51.7679487 57.8314359,52.799641 55.6452308,52.799641 Z M43.5842564,61.0286154 C44.1246667,61.0286154 44.5422564,60.6355897 44.5422564,60.0951795 C44.5422564,59.5793333 44.1246667,59.1863077 43.5842564,59.1863077 L20.3711795,59.1863077 C19.8553333,59.1863077 19.4377436,59.5793333 19.4377436,60.0951795 C19.4377436,60.6355897 19.8553333,61.0286154 20.3711795,61.0286154 L43.5842564,61.0286154 Z" id="􀎲-copy-2" fill="#EFEFEF" fill-rule="nonzero"></path>
    </g>
</svg>