<?xml version="1.0" encoding="UTF-8"?>
<svg width="64px" height="64px" viewBox="0 0 64 64" version="1.1" xmlns="http://www.w3.org/2000/svg" xmlns:xlink="http://www.w3.org/1999/xlink">
    <title>icon-videos-i</title>
    <g id="icon-videos-i" stroke="none" stroke-width="1" fill="none" fill-rule="evenodd">
        <path d="M32,61 C45.1644535,61 56,50.1889683 56,37 C56,23.8110317 45.1644535,13 31.9754852,13 C18.8110317,13 8,23.8110317 8,37 C8,50.1889683 18.8110317,61 32,61 Z M32,59.2349336 C19.7180797,59.2349336 9.76506639,49.2819203 9.76506639,37 C9.76506639,24.7425945 19.7180797,14.7650664 31.9754852,14.7650664 C44.2574055,14.7650664 54.2104639,24.7425945 54.2104639,37 C54.2349336,49.2819203 44.2574055,59.2349336 32,59.2349336 Z M27.2196118,46.4872319 L41.1195097,38.0786517 C41.9530133,37.5638407 41.9530133,36.4606742 41.1195097,35.9703779 L27.2196118,27.4882533 C26.3861083,26.9979571 25.381001,27.3901941 25.381001,28.2727273 L25.381001,45.6782431 C25.381001,46.5607763 26.3861083,46.9775281 27.2196118,46.4872319 Z" id="􀊕" fill="#EFEFEF" fill-rule="nonzero"></path>
    </g>
</svg>