<?xml version="1.0" encoding="UTF-8"?>
<svg width="64px" height="64px" viewBox="0 0 64 64" version="1.1" xmlns="http://www.w3.org/2000/svg" xmlns:xlink="http://www.w3.org/1999/xlink">
    <title>icon-app-store-f-i</title>
    <g id="icon-app-store-f-i" stroke="none" stroke-width="1" fill="none" fill-rule="evenodd">
        <g id="icon-app-store-1" transform="translate(7.900000, 12.750000)" fill="#F0F0F0" fill-rule="nonzero">
            <path d="M9.658,0 L38.632,0 C43.9659661,0 48.29,4.32403388 48.29,9.658 L48.29,38.632 C48.29,43.9659661 43.9659661,48.29 38.632,48.29 L9.658,48.29 C4.32403388,48.29 0,43.9659661 0,38.632 L0,9.658 C0,4.32403388 4.32403388,0 9.658,0 Z" id="Shape" fill-opacity="0.35"></path>
            <path d="M41.7861704,28.9165768 C41.4809525,28.533182 41.0589952,28.2627306 40.5754727,28.1332353 C40.3459964,28.0716687 40.1152012,28.0440702 39.8786443,28.0311242 C39.6179419,28.0169001 39.3576793,28.0179569 39.0969769,28.0179569 L33.9358839,28.0179569 L27.1144426,16.69425 C26.0802681,17.7089909 25.617563,18.8453726 25.4401454,19.8777365 C25.1829909,21.3745844 25.4972908,22.9102843 26.2886996,24.2241392 L34.4856338,37.8312338 C34.6160949,38.0475563 34.7450096,38.2643037 34.8883203,38.4736207 C35.0183341,38.6634065 35.1585444,38.8410929 35.3290937,39.0009465 C35.6879242,39.3374247 36.1430938,39.5526857 36.6421269,39.6140373 C37.1382794,39.6753888 37.6415198,39.578585 38.074553,39.3389106 C38.5073511,39.0994486 38.8466909,38.7298533 39.0396118,38.2876551 C39.2334195,37.8426974 39.2666469,37.3569801 39.1419397,36.8910053 C39.0828006,36.6695879 38.9924354,36.4645168 38.8856723,36.2615687 C38.7685007,36.0380282 38.6371527,35.8225547 38.5066916,35.6062321 L36.6166549,32.468175 L39.0969769,32.468175 C39.3576793,32.468175 39.6179419,32.469449 39.8786443,32.4552256 C40.1152012,32.442064 40.3459964,32.4146789 40.5754727,32.3531145 C41.0589952,32.2236177 41.4809525,31.9531591 41.7861704,31.5697714 C42.0894019,31.1884974 42.25375,30.7225212 42.25375,30.2431706 C42.25375,29.7642484 42.0894019,29.2976366 41.7861704,28.9165768 M18.486016,28.1284139 L27.1227002,12.2856264 C27.2410422,12.0684267 27.36039,11.8520874 27.4670632,11.6276393 C27.5638654,11.4238753 27.6461813,11.2179747 27.6997177,10.9956632 C27.8132311,10.5278037 27.7828395,10.0401207 27.6065319,9.59358337 C27.4314366,9.14938329 27.1235062,8.77850557 26.7300429,8.53786165 C26.3367793,8.29743281 25.8789168,8.20002811 25.428294,8.2616212 C24.9750534,8.32343654 24.5612626,8.53935291 24.2350159,8.87719361 C24.0804479,9.03768981 23.9528548,9.21609539 23.8347125,9.40686117 C23.7047016,9.61681251 23.5873652,9.83443521 23.4688233,10.0516349 L22.9225968,11.0534206 L22.3763772,10.0516349 C22.2580352,9.83422013 22.1407057,9.61659744 22.0106879,9.40686117 C21.8923457,9.21609539 21.7649524,9.03768981 21.6099781,8.87719361 C21.2841378,8.53935291 20.8703469,8.32343654 20.4171064,8.26141328 C19.9660841,8.20002811 19.508621,8.29743281 19.1153575,8.53786165 C18.7218942,8.77850557 18.413764,9.14938329 18.2386687,9.59358337 C18.0625677,10.0401207 18.0321762,10.5278037 18.1454829,10.9956632 C18.199219,11.2179747 18.2813352,11.4238753 18.378344,11.6276393 C18.4848105,11.8520874 18.6041583,12.0684267 18.7227001,12.2856264 L20.4867478,15.5216259 L13.6141044,28.1284139 L8.90461285,28.1284139 C8.66772963,28.1284139 8.43104756,28.1273527 8.1943648,28.1416344 C7.9792178,28.1546327 7.76970551,28.1823427 7.56099844,28.2441582 C7.1218488,28.3741768 6.73824621,28.6457213 6.46111065,29.0306655 C6.18558523,29.4132652 6.03625,29.8817627 6.03625,30.3626205 C6.03625,30.8439084 6.18558523,31.3117677 6.46111065,31.6943676 C6.73824621,32.0795197 7.1218488,32.3510713 7.56099844,32.4810915 C7.76970551,32.5426909 7.9792178,32.5704003 8.1943648,32.5836151 C8.43104756,32.5978961 8.66772963,32.5966743 8.90461285,32.5966743 L27.4161376,32.5966743 C27.440295,32.5452491 27.4994661,32.410753 27.5574248,32.2093305 C28.1440998,30.1780348 26.6873764,28.1284139 24.681616,28.1284139 L18.486016,28.1284139 Z M10.4361469,33.3281962 L9.31655091,35.482446 C9.20092791,35.7054201 9.08412242,35.9275192 8.9795294,36.157933 C8.88478523,36.3671216 8.80442027,36.5784982 8.75182882,36.8067239 C8.64093237,37.2870267 8.67047892,37.787679 8.8430269,38.2463186 C9.01439374,38.7021136 9.31595967,39.0830734 9.70104293,39.3298986 C10.0863224,39.5769425 10.5336484,39.6767229 10.9748686,39.613485 C11.4184523,39.5502468 11.8236263,39.3283668 12.1427232,38.9815425 C12.2941955,38.8167737 12.4188792,38.6336237 12.5345029,38.4380022 C12.6619446,38.2222491 12.7767809,37.9988371 12.8927976,37.7758629 L14.5164451,34.6513805 C14.3897968,34.4373777 13.1776181,32.5406752 10.4361469,33.3281962" id="Shape"></path>
        </g>
    </g>
</svg>