<?xml version="1.0" encoding="UTF-8"?>
<svg width="64px" height="64px" viewBox="0 0 64 64" version="1.1" xmlns="http://www.w3.org/2000/svg" xmlns:xlink="http://www.w3.org/1999/xlink">
    <title>icon-downloads-i</title>
    <g id="icon-downloads-i" stroke="none" stroke-width="1" fill="none" fill-rule="evenodd">
        <path d="M32,61 C45.1644535,61 56,50.1889683 56,37 C56,23.8110317 45.1644535,13 31.9754852,13 C18.8110317,13 8,23.8110317 8,37 C8,50.1889683 18.8110317,61 32,61 Z M32,59.2349336 C19.7180797,59.2349336 9.76506639,49.2819203 9.76506639,37 C9.76506639,24.7425945 19.7180797,14.7650664 31.9754852,14.7650664 C44.2574055,14.7650664 54.2104639,24.7425945 54.2104639,37 C54.2349336,49.2819203 44.2574055,59.2349336 32,59.2349336 Z M32.0126801,49.6039942 C32.4294319,49.6039942 32.7481244,49.4323905 33.0913318,49.0891832 L41.8676341,40.3373957 C42.1127822,40.0922475 42.2598711,39.7490402 42.2598711,39.3568032 C42.2598711,38.5968441 41.6715156,38.0330034 40.8870417,38.0330034 C40.4948047,38.0330034 40.1515973,38.1555775 39.8819344,38.4497552 L36.0331091,42.3230953 L33.2874502,45.3874467 L33.4345391,40.8767215 L33.4345391,25.7755979 C33.4345391,24.9420943 32.8461836,24.3537389 32.0126801,24.3537389 C31.2036913,24.3537389 30.590821,24.9420943 30.590821,25.7755979 L30.590821,40.8767215 L30.7379099,45.3384171 L28.0167659,42.3230953 L24.1434257,38.4497552 C23.8737628,38.1800923 23.5550703,38.0330034 23.1383185,38.0330034 C22.3783593,38.0330034 21.7900039,38.5968441 21.7900039,39.3568032 C21.7900039,39.7490402 21.9125779,40.0922475 22.1822409,40.3373957 L30.9340284,49.0891832 C31.3017506,49.4569054 31.6204431,49.6039942 32.0126801,49.6039942 Z" id="ô€¸-copy" fill="#EFEFEF" fill-rule="nonzero"></path>
    </g>
</svg>