<?xml version="1.0" encoding="UTF-8"?>
<svg width="64px" height="64px" viewBox="0 0 64 64" version="1.1" xmlns="http://www.w3.org/2000/svg" xmlns:xlink="http://www.w3.org/1999/xlink">
    <title>icon-documents-f-i</title>
    <g id="icon-documents-f-i" stroke="none" stroke-width="1" fill="none" fill-rule="evenodd">
        <path d="M43.8753875,13 C47.8896466,13 50,15.0899195 50,19.0880265 L50,19.0880265 L50,54.9119735 C50,58.9100805 47.8896466,61 43.8753875,61 L43.8753875,61 L19.1246125,61 C15.1103534,61 13,58.9100805 13,54.9119735 L13,54.9119735 L13,19.0880265 C13,15.0899195 15.1562306,13 19.1246125,13 L19.1246125,13 Z M43.2061117,51.7402778 L20.5034037,51.7402778 C19.8388991,51.7402778 19.3002116,52.2789652 19.3002116,52.9434698 C19.3002116,53.6079744 19.8388991,54.1466619 20.5034037,54.1466619 L20.5034037,54.1466619 L43.2061117,54.1466619 C43.8706163,54.1466619 44.4093037,53.6079744 44.4093037,52.9434698 C44.4093037,52.2789652 43.8706163,51.7402778 43.2061117,51.7402778 L43.2061117,51.7402778 Z M43.2061117,42.9168693 L20.5034037,42.9168693 C20.2819022,42.9168693 20.0743803,42.9767235 19.8961296,43.0811403 C19.717879,43.1855571 19.5688995,43.3345366 19.4644826,43.5127873 C19.3600658,43.691038 19.3002116,43.8985598 19.3002116,44.1200614 C19.3002116,44.3415629 19.3600658,44.5490848 19.4644826,44.7273354 C19.5688995,44.9055861 19.717879,45.0545656 19.8961296,45.1589824 C20.0743803,45.2633993 20.2819022,45.3232534 20.5034037,45.3232534 L20.5034037,45.3232534 L43.2061117,45.3232534 C43.4276132,45.3232534 43.6351351,45.2633993 43.8133857,45.1589824 C43.9916364,45.0545656 44.1406159,44.9055861 44.2450327,44.7273354 C44.3494496,44.5490848 44.4093037,44.3415629 44.4093037,44.1200614 C44.4093037,43.8985598 44.3494496,43.691038 44.2450327,43.5127873 C44.1406159,43.3345366 43.9916364,43.1855571 43.8133857,43.0811403 C43.6351351,42.9767235 43.4276132,42.9168693 43.2061117,42.9168693 L43.2061117,42.9168693 Z M26.5433186,19.6551561 C25.2998668,19.6551561 24.5227094,20.2654709 24.0564149,21.5776478 L24.0564149,21.5776478 L19.5178157,33.906007 L19.4666094,34.0755784 C19.3687284,34.412942 19.3002116,34.7342914 19.3002116,34.9435422 C19.3002116,35.9200459 19.9219376,36.499845 20.9788716,36.499845 C21.8182016,36.499845 22.3466686,36.0421089 22.6264453,35.0045737 L22.6264453,35.0045737 L23.6833794,32.0445468 L29.4654304,32.0445468 L30.5845371,35.0045737 L30.6399171,35.187318 C30.931465,36.0707174 31.443296,36.499845 32.2010245,36.499845 C33.2890448,36.499845 33.8796845,35.9200459 33.8796845,34.9435422 C33.8796845,34.6994163 33.8175119,34.3332274 33.6620804,33.906007 L33.6620804,33.906007 L29.1234812,21.5776478 L29.0511744,21.3860738 C28.5780721,20.2059652 27.8131938,19.6551561 26.5433186,19.6551561 Z M26.6676638,23.1034348 L28.7815319,29.5117403 L24.3983642,29.5117403 L26.481146,23.1034348 L26.6676638,23.1034348 Z" id="Combined-Shape" fill="#EFEFEF" fill-rule="nonzero"></path>
    </g>
</svg>