<?xml version="1.0" encoding="UTF-8"?>
<svg width="64px" height="64px" viewBox="0 0 64 64" version="1.1" xmlns="http://www.w3.org/2000/svg" xmlns:xlink="http://www.w3.org/1999/xlink">
    <title>icon-program-f-i</title>
    <g id="icon-program-f-i" stroke="none" stroke-width="1" fill="none" fill-rule="evenodd">
        <g id="icon-program" transform="translate(7.900000, 12.750000)" fill="#F0F0F0" fill-rule="nonzero">
            <path d="M42.25375,0 C45.5874788,0 48.29,2.70252124 48.29,6.03625 L48.29,42.25375 C48.29,45.5874788 45.5874788,48.29 42.25375,48.29 L6.03625,48.29 C2.70252118,48.29 0,45.5874788 0,42.25375 L0,6.03625 C0,2.70252124 2.70252118,0 6.03625,0 L42.25375,0 Z M30.0270329,16.1185705 C27.6207983,16.1185705 25.4380397,17.5018779 24.3008509,17.5018779 C23.1141383,17.5018779 21.4482836,16.0527866 19.5032389,16.1185705 C16.9651474,16.1677549 14.615246,17.7225923 13.3127718,19.9162102 C12.3897731,21.4876474 12.0412499,23.3369754 12.0746784,25.219503 C12.1242022,28.7712213 13.4842478,32.4704924 15.1321501,34.8270332 C16.4011958,36.6271771 17.7860033,38.5588889 19.8127622,38.5588889 C21.6420453,38.5588889 22.3669489,37.3292824 24.7564692,37.3292824 C26.9819421,37.3292824 27.6344174,38.5588889 29.5627479,38.5588889 C31.5895068,38.5588889 32.9637905,36.7255456 34.1678364,34.9088021 C35.6838817,32.7975677 36.151881,30.8019164 36.2175,30.7201476 C36.151881,30.7201476 32.3707437,29.1640806 32.2227916,24.7774595 C32.2227916,20.9312503 35.3118347,19.1206548 35.4436916,19.038886 C33.7295513,16.4198242 31.0651743,16.1185705 30.0270329,16.1185705 Z M30.0270329,9.04833337 C28.477559,9.04833337 26.8308947,9.87462888 25.6937059,11.2001447 C24.8041358,12.2969537 23.8006612,14.0891051 24.1473273,15.8080949 C25.7457059,16.0042172 27.4901795,14.9848735 28.4794161,13.6593576 C29.6166049,12.4315956 30.1260804,10.7667084 30.0270329,9.04833337 Z" id="Combined-Shape" fill-opacity="0.35"></path>
            <path d="M24.1473273,15.8080949 C23.8006612,14.0891051 24.8041358,12.2969537 25.6937059,11.2001447 C26.8308947,9.87462888 28.477559,9.04833337 30.0270329,9.04833337 C30.1260804,10.7667084 29.6166049,12.4315956 28.4794161,13.6593576 C27.4901795,14.9848735 25.7457059,16.0042172 24.1473273,15.8080949 Z M35.4436916,19.038886 C35.3118347,19.1206548 32.2227916,20.9312503 32.2227916,24.7774595 C32.3707437,29.1640806 36.151881,30.7201476 36.2175,30.7201476 C36.151881,30.8019164 35.6838817,32.7975677 34.1678364,34.9088021 C32.9637905,36.7255456 31.5895068,38.5588889 29.5627479,38.5588889 C27.6344174,38.5588889 26.9819421,37.3292824 24.7564692,37.3292824 C22.3669489,37.3292824 21.6420453,38.5588889 19.8127622,38.5588889 C17.7860033,38.5588889 16.4011958,36.6271771 15.1321501,34.8270332 C13.4842478,32.4704924 12.1242022,28.7712213 12.0746784,25.219503 C12.0412499,23.3369754 12.3897731,21.4876474 13.3127718,19.9162102 C14.615246,17.7225923 16.9651474,16.1677549 19.5032389,16.1185705 C21.4482836,16.0527866 23.1141383,17.5018779 24.3008509,17.5018779 C25.4380397,17.5018779 27.6207983,16.1185705 30.0270329,16.1185705 C31.0651743,16.1185705 33.7295513,16.4198242 35.4436916,19.038886 Z" id="Shape"></path>
        </g>
    </g>
</svg>