<?xml version="1.0" encoding="UTF-8"?>
<svg width="64px" height="64px" viewBox="0 0 64 64" version="1.1" xmlns="http://www.w3.org/2000/svg" xmlns:xlink="http://www.w3.org/1999/xlink">
    <title>icon-watchos-f-i</title>
    <g id="icon-watchos-f-i" stroke="none" stroke-width="1" fill="none" fill-rule="evenodd">
        <g id="Group" transform="translate(18.150000, 17.000000)">
            <rect id="Rectangle-Copy-4" fill-opacity="0.35" fill="#F0F0F0" x="0.8" y="7" width="26" height="30" rx="7"></rect>
            <path d="M18.7128906,44.484375 C19.2884115,44.484375 19.7708333,44.3447266 20.1601562,44.0654297 C20.5494792,43.7861328 20.828776,43.3671875 20.9980469,42.8085938 L22.0136719,39.609375 C22.2167969,38.9830729 22.4495443,38.5175781 22.7119141,38.2128906 C22.9742839,37.9082031 23.3847656,37.6035156 23.9433594,37.2988281 C25.1790365,36.6217448 26.1184896,35.694987 26.7617188,34.5185547 C27.4049479,33.3421224 27.7265625,31.8313802 27.7265625,29.9863281 L27.7263906,20.9478281 L27.9296875,20.9472656 C28.4375,20.9472656 28.8479818,20.773763 29.1611328,20.4267578 C29.4742839,20.0797526 29.6308594,19.6269531 29.6308594,19.0683594 L29.6308594,15.7929688 C29.6308594,15.234375 29.4742839,14.7858073 29.1611328,14.4472656 C28.8479818,14.108724 28.4375,13.9394531 27.9296875,13.9394531 L27.7143906,13.9398281 L27.7068718,13.7464326 C27.6281091,12.2343949 27.313058,10.9741908 26.7617188,9.96582031 C26.1184896,8.78938802 25.1790365,7.85416667 23.9433594,7.16015625 C23.3847656,6.87239583 22.9742839,6.58040365 22.7119141,6.28417969 C22.4495443,5.98795573 22.2167969,5.51822917 22.0136719,4.875 L20.9980469,1.67578125 C20.828776,1.1171875 20.5494792,0.698242188 20.1601562,0.418945312 C19.7708333,0.139648438 19.2884115,0 18.7128906,0 L9.01367188,0 C8.43815104,0 7.95572917,0.139648438 7.56640625,0.418945312 C7.17708333,0.698242188 6.89778646,1.1171875 6.72851562,1.67578125 L5.6875,4.875 C5.50130208,5.51822917 5.27278646,5.98795573 5.00195312,6.28417969 C4.73111979,6.58040365 4.32486979,6.87239583 3.78320312,7.16015625 C2.54752604,7.85416667 1.60807292,8.78938802 0.96484375,9.96582031 C0.321614583,11.1422526 0,12.6614583 0,14.5234375 L0,29.9863281 C0,31.8313802 0.321614583,33.3421224 0.96484375,34.5185547 C1.60807292,35.694987 2.54752604,36.6217448 3.78320312,37.2988281 C4.32486979,37.6035156 4.73111979,37.9082031 5.00195312,38.2128906 C5.27278646,38.5175781 5.50130208,38.9830729 5.6875,39.609375 L6.72851562,42.8085938 C6.89778646,43.3671875 7.17708333,43.7861328 7.56640625,44.0654297 C7.95572917,44.3447266 8.43815104,44.484375 9.01367188,44.484375 L18.7128906,44.484375 Z M19.2460938,36.5625 L8.45507812,36.5625 C6.35611979,36.5625 4.72265625,35.9658203 3.5546875,34.7724609 C2.38671875,33.5791016 1.80273438,31.9329427 1.80273438,29.8339844 L1.80273438,14.6757812 C1.80273438,12.5598958 2.38671875,10.9052734 3.5546875,9.71191406 C4.72265625,8.51855469 6.35611979,7.921875 8.45507812,7.921875 L19.2460938,7.921875 C21.3450521,7.921875 22.9827474,8.51855469 24.1591797,9.71191406 C25.335612,10.9052734 25.9238281,12.5598958 25.9238281,14.6757812 L25.9238281,29.8339844 C25.9238281,31.9329427 25.335612,33.5791016 24.1591797,34.7724609 C22.9827474,35.9658203 21.3450521,36.5625 19.2460938,36.5625 Z" id="􀟤" fill="#EFEFEF" fill-rule="nonzero"></path>
        </g>
    </g>
</svg>