<?xml version="1.0" encoding="utf-8"?>
<!-- Generator: Adobe Illustrator 19.2.1, SVG Export Plug-In . SVG Version: 6.00 Build 0)  -->
<svg version="1.1" id="Layer_1" xmlns="http://www.w3.org/2000/svg" xmlns:xlink="http://www.w3.org/1999/xlink" x="0px" y="0px"
	 width="44px" height="54px" viewBox="0 0 44 54" enable-background="new 0 0 44 54" xml:space="preserve">
<path fill="#EFEFEF" d="M39.7,39.7L39.7,39.7c0.1-0.2,0.1-0.4,0.2-0.6c2.4-9.4-3.3-20.4-13.1-26.2c4.3,5.8,6,12.7,4.5,18.9
	c-0.1,0.5-0.3,1.1-0.5,1.6c-0.2-0.1-0.5-0.3-0.8-0.5c0,0-9.7-6-20.1-16.5c-0.3-0.3,5.6,8.4,12.2,15.3c-3.1-1.8-11.9-8.1-17.4-13.2
	c0.6,1.1,1.5,2.2,2.4,3.3c4.6,5.9,10.6,13.1,17.8,18.6c-5.1,3.1-12.2,3.3-19.4,0c-1.8-0.8-3.3-1.8-5-3c3,4.7,7.7,9,13.3,11.3
	c6.7,2.9,13.5,2.7,18.4,0l0,0c0,0,0,0,0.1,0c0.2-0.1,0.4-0.2,0.6-0.4c2.4-1.2,7.1-2.5,9.7,2.5C43.3,52.2,44.6,45.7,39.7,39.7z"/>
</svg>
