<?xml version="1.0" encoding="UTF-8"?>
<svg width="64px" height="64px" viewBox="0 0 64 64" version="1.1" xmlns="http://www.w3.org/2000/svg" xmlns:xlink="http://www.w3.org/1999/xlink">
    <title>icon-macos-f-i</title>
    <g id="icon-macos-f-i" stroke="none" stroke-width="1" fill="none" fill-rule="evenodd">
        <g id="Group" transform="translate(3.250000, 13.000000)">
            <rect id="Rectangle-Copy-3" fill-opacity="0.35" fill="#F0F0F0" x="1.3" y="1" width="55" height="30" rx="2"></rect>
            <path d="M39.4570312,47.9628906 C39.7109375,47.9628906 39.9309896,47.8740234 40.1171875,47.6962891 C40.3033854,47.5185547 40.3964844,47.3027344 40.3964844,47.0488281 C40.3964844,46.7610677 40.3033854,46.5325521 40.1171875,46.3632812 C39.9309896,46.1940104 39.7109375,46.109375 39.4570312,46.109375 L37.0293906,46.1093906 L36.1983906,39.7623906 L52.3554688,39.7617188 C54.0651042,39.7617188 55.3473307,39.3300781 56.2021484,38.4667969 C57.0569661,37.6035156 57.484375,36.3170573 57.484375,34.6074219 L57.484375,5.12890625 C57.484375,3.41927083 57.0569661,2.13704427 56.2021484,1.28222656 C55.3473307,0.427408854 54.0651042,0 52.3554688,0 L5.15429688,0 C3.44466146,0 2.15820312,0.427408854 1.29492188,1.28222656 C0.431640625,2.13704427 0,3.41927083 0,5.12890625 L0,34.6074219 C0,36.3170573 0.431640625,37.6035156 1.29492188,38.4667969 C2.15820312,39.3300781 3.44466146,39.7617188 5.15429688,39.7617188 L21.3103906,39.7623906 L20.4793906,46.1093906 L18.0527344,46.109375 C17.781901,46.109375 17.5533854,46.1940104 17.3671875,46.3632812 C17.1809896,46.5325521 17.0878906,46.7610677 17.0878906,47.0488281 C17.0878906,47.3027344 17.1809896,47.5185547 17.3671875,47.6962891 C17.5533854,47.8740234 17.781901,47.9628906 18.0527344,47.9628906 L39.4570312,47.9628906 Z M54.2597656,29.9863281 L3.22460938,29.9863281 C2.32747396,29.9863281 1.87890625,29.5377604 1.87890625,28.640625 L1.87890625,5.20507812 C1.87890625,4.07096354 2.15820312,3.22884115 2.71679688,2.67871094 C3.27539062,2.12858073 4.11328125,1.85351562 5.23046875,1.85351562 L52.2539062,1.85351562 C53.3880208,1.85351562 54.234375,2.12858073 54.7929688,2.67871094 C55.3515625,3.22884115 55.6308594,4.07096354 55.6308594,5.20507812 L55.6308594,28.640625 C55.6308594,29.5377604 55.1738281,29.9863281 54.2597656,29.9863281 Z M28.7675781,37.171875 C28.2259115,37.171875 27.7773438,36.9983724 27.421875,36.6513672 C27.0664062,36.304362 26.8886719,35.860026 26.8886719,35.3183594 C26.8886719,34.827474 27.0664062,34.4000651 27.421875,34.0361328 C27.7773438,33.6722005 28.2259115,33.4902344 28.7675781,33.4902344 C29.2584635,33.4902344 29.6858724,33.6722005 30.0498047,34.0361328 C30.413737,34.4000651 30.5957031,34.827474 30.5957031,35.3183594 C30.5957031,35.860026 30.413737,36.304362 30.0498047,36.6513672 C29.6858724,36.9983724 29.2584635,37.171875 28.7675781,37.171875 Z" id="􀙗" fill="#EFEFEF" fill-rule="nonzero"></path>
        </g>
    </g>
</svg>